<!DOCTYPE svg PUBLIC "-//W3C//DTD SVG 1.1//EN" "http://www.w3.org/Graphics/SVG/1.1/DTD/svg11.dtd">
<!-- Uploaded to: SVG Repo, www.svgrepo.com, Transformed by: SVG Repo Mixer Tools -->
<svg fill="#2569d4" height="800px" width="800px" version="1.1" id="Layer_1" xmlns="http://www.w3.org/2000/svg" xmlns:xlink="http://www.w3.org/1999/xlink" viewBox="0 0 490.667 490.667" xml:space="preserve" stroke="#2569d4">
<g id="SVGRepo_bgCarrier" stroke-width="0"/>
<g id="SVGRepo_tracerCarrier" stroke-linecap="round" stroke-linejoin="round"/>
<g id="SVGRepo_iconCarrier"> <g> <g> <g> <path d="M320,341.333h-18.987l29.44-147.243c0.661-3.328-0.299-6.784-2.603-9.301c-2.283-2.475-5.611-3.755-9.045-3.392 l-79.424,8.832l37.376-112.192c1.088-3.243,0.533-6.827-1.451-9.6c-1.984-2.795-5.205-4.437-8.64-4.437h-85.333 c-4.843,0-9.088,3.264-10.304,7.957l-53.333,202.667c-0.917,3.499,0,7.232,2.432,9.899c2.453,2.667,6.101,3.989,9.643,3.328 l112.405-18.731l-16.064,72.213h-23.445c-3.691,0-7.125,1.92-9.067,5.056s-2.133,7.061-0.469,10.368l42.667,85.333 c1.6,3.179,4.651,5.355,8.192,5.803c0.448,0.064,0.896,0.085,1.344,0.085c3.051,0,5.995-1.323,8.021-3.648l74.667-85.333 c2.752-3.136,3.413-7.616,1.685-11.435C327.979,343.765,324.181,341.333,320,341.333z"/> <path d="M245.333,0C110.059,0,0,110.059,0,245.333s110.059,245.333,245.333,245.333s245.333-110.059,245.333-245.333 S380.608,0,245.333,0z M245.333,469.333c-123.52,0-224-100.48-224-224s100.48-224,224-224s224,100.48,224,224 S368.853,469.333,245.333,469.333z"/> </g> </g> </g> </g>
</svg>