<!DOCTYPE svg PUBLIC "-//W3C//DTD SVG 1.1//EN" "http://www.w3.org/Graphics/SVG/1.1/DTD/svg11.dtd">
<!-- Uploaded to: SVG Repo, www.svgrepo.com, Transformed by: SVG Repo Mixer Tools -->
<svg width="800px" height="800px" viewBox="0 0 24 24" fill="none" xmlns="http://www.w3.org/2000/svg">
<g id="SVGRepo_bgCarrier" stroke-width="0"/>
<g id="SVGRepo_tracerCarrier" stroke-linecap="round" stroke-linejoin="round"/>
<g id="SVGRepo_iconCarrier"> <path d="M9.00001 7C9.00001 7.41421 9.3358 7.75 9.75001 7.75C10.1642 7.75 10.5 7.41421 10.5 7H9.00001ZM12.9 7C12.9 7.41421 13.2358 7.75 13.65 7.75C14.0642 7.75 14.4 7.41421 14.4 7H12.9ZM9.75001 6.25C9.3358 6.25 9.00001 6.58579 9.00001 7C9.00001 7.41421 9.3358 7.75 9.75001 7.75V6.25ZM13.65 7.75C14.0642 7.75 14.4 7.41421 14.4 7C14.4 6.58579 14.0642 6.25 13.65 6.25V7.75ZM9.75001 7.75C10.1642 7.75 10.5 7.41421 10.5 7C10.5 6.58579 10.1642 6.25 9.75001 6.25V7.75ZM13.65 6.25C13.2358 6.25 12.9 6.58579 12.9 7C12.9 7.41421 13.2358 7.75 13.65 7.75V6.25ZM12.4948 10.8521C12.6893 10.4864 12.5504 10.0322 12.1847 9.83779C11.819 9.64333 11.3649 9.78217 11.1704 10.1479L12.4948 10.8521ZM10.2375 13.5L9.5753 13.1479C9.4517 13.3804 9.45904 13.6606 9.59464 13.8863C9.73024 14.112 9.97424 14.25 10.2375 14.25V13.5ZM13.1625 13.5L13.8247 13.8521C13.9483 13.6196 13.941 13.3394 13.8054 13.1137C13.6698 12.888 13.4258 12.75 13.1625 12.75V13.5ZM10.9052 16.1479C10.7107 16.5136 10.8496 16.9678 11.2153 17.1622C11.581 17.3567 12.0352 17.2178 12.2296 16.8521L10.9052 16.1479ZM10.5 7V5H9.00001V7H10.5ZM10.5 5C10.5 4.84392 10.6185 4.75 10.725 4.75V3.25C9.75453 3.25 9.00001 4.05152 9.00001 5H10.5ZM10.725 4.75H12.675V3.25H10.725V4.75ZM12.675 4.75C12.7815 4.75 12.9 4.84392 12.9 5H14.4C14.4 4.05152 13.6455 3.25 12.675 3.25V4.75ZM12.9 5V7H14.4V5H12.9ZM9.75001 7.75H13.65V6.25H9.75001V7.75ZM9.75001 6.25C7.70258 6.25 6.07501 7.94695 6.07501 10H7.57501C7.57501 8.73935 8.56658 7.75 9.75001 7.75V6.25ZM6.07501 10L6.07501 17H7.57501L7.57501 10H6.07501ZM6.07501 17C6.07501 19.0531 7.70258 20.75 9.75001 20.75V19.25C8.56658 19.25 7.57501 18.2607 7.57501 17H6.07501ZM9.75001 20.75H13.65V19.25H9.75001V20.75ZM13.65 20.75C15.6974 20.75 17.325 19.0531 17.325 17H15.825C15.825 18.2607 14.8334 19.25 13.65 19.25V20.75ZM17.325 17V10H15.825V17H17.325ZM17.325 10C17.325 7.94695 15.6974 6.25 13.65 6.25V7.75C14.8334 7.75 15.825 8.73935 15.825 10H17.325ZM11.1704 10.1479L9.5753 13.1479L10.8997 13.8521L12.4948 10.8521L11.1704 10.1479ZM10.2375 14.25H13.1625V12.75H10.2375V14.25ZM12.5003 13.1479L10.9052 16.1479L12.2296 16.8521L13.8247 13.8521L12.5003 13.1479Z" fill="#000000"/> </g>
</svg>